<?xml version="1.0" ?><svg height="32px" version="1.1" viewBox="0 0 32 32" width="32px" xmlns="http://www.w3.org/2000/svg" xmlns:xlink="http://www.w3.org/1999/xlink"><title/><desc/><defs/><g fill="none" fill-rule="evenodd" id="Windy" stroke="none" stroke-linecap="round" stroke-width="1"><g stroke="#979797" stroke-width="2" transform="translate(3.000000, 3.000000)"><g id="Group-2" transform="translate(2.000000, 0.000000)"><g id="Group" transform="translate(5.000000, 0.000000)"><path d="M5,10 C7.76142375,10 10,7.76142375 10,5 C10,2.23857625 7.76142375,0 5,0 C2.23857625,0 0,2.23857625 0,5" id="Oval-6"/></g><path d="M0,10 L10,10" id="Path-9"/></g><g id="Group-3" transform="translate(3.000000, 17.000000)"><path d="M0,1 L14,1" id="Path-10"/><path d="M11,4 C11,5.65685425 12.3431458,7 14,7 C15.6568542,7 17,5.65685425 17,4 C17,2.34314575 15.6568542,1 14,1" id="Oval-7"/></g><g id="Group-4" transform="translate(0.000000, 4.000000)"><path d="M21,10 C23.7614237,10 26,7.76142375 26,5 C26,2.23857625 23.7614237,0 21,0 C20.7036941,0 20.4134082,0.0257742635 20.1312618,0.075203111" id="Oval-8"/><path d="M0,10 L21,10" id="Path-11"/></g></g></g></svg>