<?xml version="1.0" encoding="utf-8"?>
<!-- Generator: Adobe Illustrator 25.0.1, SVG Export Plug-In . SVG Version: 6.00 Build 0)  -->
<svg version="1.1" id="Layer_1" xmlns="http://www.w3.org/2000/svg" xmlns:xlink="http://www.w3.org/1999/xlink" x="0px" y="0px"
	 viewBox="0 0 32 32" style="enable-background:new 0 0 32 32;" xml:space="preserve">
<style type="text/css">
	.st0{fill:none;stroke:#FFFFFF;stroke-width:2;}
	.st1{fill:none;stroke:#FFFFFF;stroke-width:2;stroke-linecap:round;}
	.st2{fill-rule:evenodd;clip-rule:evenodd;fill:#FFFFFF;}
</style>
<desc></desc>
<g id="Thermometer-Hot">
	<g id="Group" transform="translate(7.000000, 2.000000)">
		<path id="Combined-Shape" class="st0" d="M3,16.8V3c0-1.7,1.3-3,3-3s3,1.3,3,3v13.8c1.8,1,3,3,3,5.2c0,3.3-2.7,6-6,6s-6-2.7-6-6
			C0,19.8,1.2,17.8,3,16.8z"/>
		<path id="Path-19" class="st1" d="M13,5h5"/>
		<path id="Path-20" class="st1" d="M13,9h5"/>
		<path id="Path-21" class="st1" d="M13,13h5"/>
	</g>
	<g id="Group-2" transform="translate(10.000000, 12.000000)">
		<circle id="Oval" class="st2" cx="3" cy="12" r="3"/>
		<path id="Rectangle-2" class="st2" d="M3,0L3,0c0.6,0,1,0.4,1,1v9c0,0.6-0.4,1-1,1l0,0c-0.6,0-1-0.4-1-1V1C2,0.4,2.4,0,3,0z"/>
	</g>
</g>
</svg>
