<?xml version="1.0" encoding="utf-8"?>
<!-- Generator: Adobe Illustrator 25.0.1, SVG Export Plug-In . SVG Version: 6.00 Build 0)  -->
<svg version="1.1" id="Layer_1" xmlns="http://www.w3.org/2000/svg" xmlns:xlink="http://www.w3.org/1999/xlink" x="0px" y="0px"
	 viewBox="0 0 32 32" style="enable-background:new 0 0 32 32;" xml:space="preserve">
<style type="text/css">
	.st0{fill:none;stroke:#FFFFFF;stroke-width:2;stroke-linecap:round;}
	.st1{fill:none;stroke:#FFFFFF;stroke-width:2;}
</style>
<desc></desc>
<g id="Partly-Cloudy">
	<g transform="translate(2.000000, 5.000000)">
		<path id="Oval-2" class="st0" d="M12,7.6c-0.4-1.7-1.9-2.9-3.6-2.9c-2.1,0-3.7,1.7-3.7,3.7C4.7,9,4.8,9.5,5,10"/>
		<g id="Group-3" transform="translate(2.000000, 4.000000)">
			<path id="Oval" class="st1" d="M10.1,5C9.3,4.6,8.3,4.4,7.3,4.4c-3.6,0-6.5,2.9-6.5,6.5s2.9,6.5,6.5,6.5c1.8,0,3.4-0.7,4.6-1.9"
				/>
			<path id="Oval_1_" class="st0" d="M10.5,13.8c1.5,2.2,4.1,3.7,6.9,3.7c4.6,0,8.4-3.8,8.4-8.4S22,0.7,17.4,0.7
				c-4,0-7.4,2.8-8.2,6.6"/>
		</g>
		<path id="Path-4" class="st0" d="M7.9,1.9V0 M12.7,4.2L14.1,3 M2,9.3L0.2,9.7 M3.2,4.2L1.7,3"/>
	</g>
</g>
</svg>
