<?xml version="1.0" ?><svg height="32px" version="1.1" viewBox="0 0 32 32" width="32px" xmlns="http://www.w3.org/2000/svg" xmlns:xlink="http://www.w3.org/1999/xlink"><title/><desc/><defs/><g fill="none" fill-rule="evenodd" id="Light-Snow" stroke="none" stroke-width="1"><g id="Group-2" stroke="#979797" stroke-width="2" transform="translate(3.000000, 2.000000)"><path d="M9.64075822,4.50583286 C8.76235298,4.08656863 7.77895738,3.85185185 6.74074074,3.85185185 C3.01793243,3.85185185 0,6.86978428 0,10.5925926 C0,14.3154009 3.01793243,17.3333333 6.74074074,17.3333333 C8.57997198,17.3333333 10.2471575,16.5967179 11.4633749,15.4024092" id="Oval"/><path d="M9.96956753,13.5435375 C11.529699,15.8313205 14.156887,17.3333333 17.134889,17.3333333 C21.9213568,17.3333333 25.8015556,13.4531345 25.8015556,8.66666667 C25.8015556,3.88019884 21.9213568,0 17.134889,0 C12.9842561,0 9.51510686,2.91777867 8.66666667,6.81411072" id="Oval" stroke-linecap="round"/></g><circle cx="14" cy="29" id="Oval-10" r="1" stroke="#979797"/><circle cx="22" cy="23" id="Oval-10" r="1" stroke="#979797"/><circle cx="8.5" cy="22.5" id="Oval-10" r="1" stroke="#979797"/><circle cx="18.5" cy="26.5" id="Oval-10" r="1" stroke="#979797"/><polygon fill="#D8D8D8" id="Star-2" points="8 27 7 28.7320508 8 27 6 27 8 27 7 25.2679492 8 27 9 25.2679492 8 27 10 27 8 27 9 28.7320508" stroke="#979797" stroke-linecap="round" stroke-linejoin="round"/><polygon fill="#D8D8D8" id="Star-2" points="15 23 14 24.7320508 15 23 13 23 15 23 14 21.2679492 15 23 16 21.2679492 15 23 17 23 15 23 16 24.7320508" stroke="#979797" stroke-linecap="round" stroke-linejoin="round"/><polygon fill="#D8D8D8" id="Star-2" points="22 28 21 29.7320508 22 28 20 28 22 28 21 26.2679492 22 28 23 26.2679492 22 28 24 28 22 28 23 29.7320508" stroke="#979797" stroke-linecap="round" stroke-linejoin="round"/></g></svg>