<?xml version="1.0" encoding="utf-8"?>
<!-- Generator: Adobe Illustrator 25.0.1, SVG Export Plug-In . SVG Version: 6.00 Build 0)  -->
<svg version="1.1" id="Layer_1" xmlns="http://www.w3.org/2000/svg" xmlns:xlink="http://www.w3.org/1999/xlink" x="0px" y="0px"
	 viewBox="0 0 32 32" style="enable-background:new 0 0 32 32;" xml:space="preserve">
<style type="text/css">
	.st0{fill:none;stroke:#FFFFFF;stroke-width:2;stroke-linecap:round;stroke-linejoin:round;}
	.st1{fill:none;stroke:#FFFFFF;stroke-width:2;}
	.st2{fill:none;stroke:#FFFFFF;stroke-width:2;stroke-linecap:round;}
</style>
<desc></desc>
<g id="Cloudy-Night">
	<g transform="translate(4.000000, 3.000000)">
		<path id="Combined-Shape" class="st0" d="M16.1,19.4c1.2,0.4,2.6,0.6,3.9,0.6c1.5,0,3-0.3,4.4-0.8c-2.2,4-6.5,6.8-11.4,6.8
			C5.8,26,0,20.2,0,13C0,7.4,3.6,2.6,8.6,0.8c-0.5,1-1,2.1-1.2,3.2"/>
		
			<g id="Overcast" transform="translate(14.847860, 10.961592) rotate(-3.000000) translate(-14.847860, -10.961592) translate(6.347860, 4.461592)">
			<g id="Group-3" transform="translate(1.000000, 0.000000)">
				<path id="Oval-3" class="st1" d="M5.1,3.5c0-1.4-1.1-2.5-2.5-2.5C1.1,0.9,0,2,0,3.5c0,0.5,0.1,0.9,0.4,1.3"/>
				<path id="Oval-3_1_" class="st2" d="M8.7,1.2C8.3,0.5,7.5,0,6.6,0C5.7,0,5,0.4,4.5,1.1"/>
			</g>
			<g id="Group-2" transform="translate(0.000000, 1.000000)">
				<path id="Oval" class="st1" d="M6.6,3.4C6.1,3.1,5.5,2.9,4.8,2.9c-2.4,0-4.3,2-4.3,4.4s1.9,4.4,4.3,4.4c1.2,0,2.2-0.5,3-1.2"/>
				<path id="Oval_1_" class="st2" d="M6.8,9.2c1,1.5,2.7,2.4,4.5,2.4c3,0,5.5-2.5,5.5-5.6s-2.5-5.6-5.5-5.6C8.8,0.4,6.6,2.3,6,4.8"
					/>
			</g>
		</g>
	</g>
</g>
</svg>
