<?xml version="1.0" ?><svg height="32px" version="1.1" viewBox="0 0 32 32" width="32px" xmlns="http://www.w3.org/2000/svg" xmlns:xlink="http://www.w3.org/1999/xlink"><title/><desc/><defs/><g fill="none" fill-rule="evenodd" id="Cloudy-Night" stroke="none" stroke-width="1"><g stroke="#979797" stroke-width="2" transform="translate(4.000000, 3.000000)"><path d="M16.0621864,19.3929166 C17.3043159,19.7872469 18.6273124,20 20,20 C21.5486507,20 23.034054,19.7292058 24.4114424,19.2323849 C22.2042341,23.2651989 17.9214905,26 13,26 C5.82029825,26 0,20.1797017 0,13 C0,7.36894896 3.58023357,2.57410627 8.58855755,0.76761511 C8.04797446,1.75532026 7.63189107,2.82088593 7.36141554,3.94320397" id="Combined-Shape" stroke-linecap="round" stroke-linejoin="round"/><g id="Overcast" transform="translate(14.847860, 10.961592) rotate(-3.000000) translate(-14.847860, -10.961592) translate(6.347860, 4.461592)"><g id="Group-3" transform="translate(1.000000, 0.000000)"><path d="M5.05263158,3.45454545 C5.05263158,2.04872973 3.92156147,0.909090909 2.52631579,0.909090909 C1.13107011,0.909090909 0,2.04872973 0,3.45454545 C0,3.93124095 0.130051341,4.37733122 0.356354993,4.75876117" id="Oval-3"/><path d="M8.73969947,1.24730106 C8.31702185,0.502182136 7.52063906,0 6.60784723,0 C5.74460361,0 4.98547418,0.449142895 4.54808866,1.12815027" id="Oval-3" stroke-linecap="round"/></g><g id="Group-2" transform="translate(0.000000, 1.000000)"><path d="M6.63269352,3.35590568 C6.07602369,3.08499648 5.45281855,2.93333333 4.79487179,2.93333333 C2.43562463,2.93333333 0.523076923,4.88338198 0.523076923,7.28888889 C0.523076923,9.6943958 2.43562463,11.6444444 4.79487179,11.6444444 C5.96044378,11.6444444 7.01698558,11.1684775 7.78773639,10.3967704" id="Oval"/><path d="M6.84106912,9.19565328 C7.8297678,10.6739131 9.49468994,11.6444444 11.3819326,11.6444444 C14.4152504,11.6444444 16.8742403,9.13723904 16.8742403,6.04444444 C16.8742403,2.95164985 14.4152504,0.444444444 11.3819326,0.444444444 C8.75156109,0.444444444 6.55306476,2.32977835 6.01538462,4.84740829" id="Oval" stroke-linecap="round"/></g></g></g></g></svg>