<?xml version="1.0" ?><svg height="32px" version="1.1" viewBox="0 0 32 32" width="32px" xmlns="http://www.w3.org/2000/svg" xmlns:xlink="http://www.w3.org/1999/xlink"><title/><desc/><defs/><g fill="none" fill-rule="evenodd" id="Partly-Cloudy" stroke="none" stroke-width="1"><g stroke="#979797" stroke-width="2" transform="translate(2.000000, 5.000000)"><path d="M12.0414117,7.57296994 C11.6651156,5.90909589 10.1776503,4.66666667 8.4,4.66666667 C6.33813693,4.66666667 4.66666667,6.33813693 4.66666667,8.4 C4.66666667,8.96920193 4.79404975,9.50865195 5.02186366,9.99139781" id="Oval-2" stroke-linecap="round"/><g id="Group-3" transform="translate(2.000000, 4.000000)"><path d="M10.1441195,5.03385852 C9.29274212,4.62749472 8.33960485,4.4 7.33333333,4.4 C3.72507297,4.4 0.8,7.32507297 0.8,10.9333333 C0.8,14.5415937 3.72507297,17.4666667 7.33333333,17.4666667 C9.11597284,17.4666667 10.7318603,16.7527163 11.9106557,15.5951556" id="Oval"/><path d="M10.4628116,13.7934799 C11.974939,16.0108696 14.5212905,17.4666667 17.4076616,17.4666667 C22.0468535,17.4666667 25.8076616,13.7058586 25.8076616,9.06666667 C25.8076616,4.42747477 22.0468535,0.666666667 17.4076616,0.666666667 C13.3847405,0.666666667 10.0223343,3.49466753 9.2,7.27111244" id="Oval" stroke-linecap="round"/></g><path d="M7.94386176,1.86666667 L7.94386176,0 M12.6913459,4.15627042 L14.1420184,2.98153902 M2.02877844,9.28102555 L0.209954317,9.70093419 M3.19637762,4.15627042 L1.74570516,2.98153902" id="Path-4" stroke-linecap="round"/></g></g></svg>