<?xml version="1.0" ?><svg height="32px" version="1.1" viewBox="0 0 32 32" width="32px" xmlns="http://www.w3.org/2000/svg" xmlns:xlink="http://www.w3.org/1999/xlink"><title/><desc/><defs/><g fill="none" fill-rule="evenodd" id="Moderate-Rain" stroke="none" stroke-width="1"><g id="Moderate-rain" stroke="#979797" stroke-width="2" transform="translate(3.000000, 2.000000)"><g id="Group-2"><path d="M9.64075822,4.50583286 C8.76235298,4.08656863 7.77895738,3.85185185 6.74074074,3.85185185 C3.01793243,3.85185185 0,6.86978428 0,10.5925926 C0,14.3154009 3.01793243,17.3333333 6.74074074,17.3333333 C8.57997198,17.3333333 10.2471575,16.5967179 11.4633749,15.4024092" id="Oval"/><path d="M9.96956753,13.5435375 C11.529699,15.8313205 14.156887,17.3333333 17.134889,17.3333333 C21.9213568,17.3333333 25.8015556,13.4531345 25.8015556,8.66666667 C25.8015556,3.88019884 21.9213568,0 17.134889,0 C12.9842561,0 9.51510686,2.91777867 8.66666667,6.81411072" id="Oval" stroke-linecap="round"/></g><g id="Group-3" stroke-linecap="round" transform="translate(13.409396, 22.893086) rotate(25.000000) translate(-13.409396, -22.893086) translate(10.409396, 18.893086)"><path d="M5,0 L5,2" id="Path-5"/><path d="M5,5 L5,7" id="Path-6"/><path d="M1,1 L1,3" id="Path-5"/><path d="M1,6 L1,8" id="Path-6"/></g><g id="Group-3" stroke-linecap="round" transform="translate(4.409396, 22.893086) rotate(25.000000) translate(-4.409396, -22.893086) translate(1.409396, 18.893086)"><path d="M5,0 L5,2" id="Path-5"/><path d="M5,5 L5,7" id="Path-6"/><path d="M1,1 L1,3" id="Path-5"/><path d="M1,6 L1,8" id="Path-6"/></g></g></g></svg>