<?xml version="1.0" encoding="utf-8"?>
<!-- Generator: Adobe Illustrator 25.0.1, SVG Export Plug-In . SVG Version: 6.00 Build 0)  -->
<svg version="1.1" id="Layer_1" xmlns="http://www.w3.org/2000/svg" xmlns:xlink="http://www.w3.org/1999/xlink" x="0px" y="0px"
	 viewBox="0 0 32 32" style="enable-background:new 0 0 32 32;" xml:space="preserve">
<style type="text/css">
	.st0{fill:none;stroke:#FFFFFF;stroke-width:2;stroke-linecap:round;}
</style>
<desc></desc>
<g id="Windy">
	<g transform="translate(3.000000, 3.000000)">
		<g id="Group-2" transform="translate(2.000000, 0.000000)">
			<g id="Group" transform="translate(5.000000, 0.000000)">
				<path id="Oval-6" class="st0" d="M5,10c2.8,0,5-2.2,5-5S7.8,0,5,0S0,2.2,0,5"/>
			</g>
			<path id="Path-9" class="st0" d="M0,10h10"/>
		</g>
		<g id="Group-3" transform="translate(3.000000, 17.000000)">
			<path id="Path-10" class="st0" d="M0,1h14"/>
			<path id="Oval-7" class="st0" d="M11,4c0,1.7,1.3,3,3,3s3-1.3,3-3s-1.3-3-3-3"/>
		</g>
		<g id="Group-4" transform="translate(0.000000, 4.000000)">
			<path id="Oval-8" class="st0" d="M21,10c2.8,0,5-2.2,5-5s-2.2-5-5-5c-0.3,0-0.6,0-0.9,0.1"/>
			<path id="Path-11" class="st0" d="M0,10h21"/>
		</g>
	</g>
</g>
</svg>
