<?xml version="1.0" encoding="utf-8"?>
<!-- Generator: Adobe Illustrator 25.0.1, SVG Export Plug-In . SVG Version: 6.00 Build 0)  -->
<svg version="1.1" id="Layer_1" xmlns="http://www.w3.org/2000/svg" xmlns:xlink="http://www.w3.org/1999/xlink" x="0px" y="0px"
	 viewBox="0 0 32 32" style="enable-background:new 0 0 32 32;" xml:space="preserve">
<style type="text/css">
	.st0{fill:none;stroke:#FFFFFF;stroke-width:2;}
	.st1{fill:none;stroke:#FFFFFF;stroke-width:2;stroke-linecap:round;}
	.st2{fill-rule:evenodd;clip-rule:evenodd;fill:#FFFFFF;}
</style>
<desc></desc>
<g id="Thunder">
	<g transform="translate(3.000000, 2.000000)">
		<path id="Oval" class="st0" d="M9.6,4.5C8.8,4.1,7.8,3.9,6.7,3.9C3,3.9,0,6.9,0,10.6s3,6.7,6.7,6.7c1.8,0,3.5-0.7,4.7-1.9"/>
		<path id="Oval_1_" class="st1" d="M10,13.5c1.6,2.3,4.2,3.8,7.2,3.8c4.8,0,8.7-3.9,8.7-8.7S21.9,0,17.1,0C13,0,9.5,2.9,8.7,6.8"/>
		<polygon id="Rectangle-5" class="st2" points="10,18 14,18 12,22 15,22 9,30 10,25 7,25 		"/>
	</g>
</g>
</svg>
