<?xml version="1.0" encoding="utf-8"?>
<!-- Generator: Adobe Illustrator 25.0.1, SVG Export Plug-In . SVG Version: 6.00 Build 0)  -->
<svg version="1.1" id="Layer_1" xmlns="http://www.w3.org/2000/svg" xmlns:xlink="http://www.w3.org/1999/xlink" x="0px" y="0px"
	 viewBox="0 0 32 32" style="enable-background:new 0 0 32 32;" xml:space="preserve">
<style type="text/css">
	.st0{fill:none;stroke:#FFFFFF;stroke-width:2;stroke-linecap:round;stroke-linejoin:round;}
	.st1{fill-rule:evenodd;clip-rule:evenodd;fill:#FFFFFF;stroke:#FFFFFF;}
</style>
<desc></desc>
<g id="Clearly-Night">
	<g transform="translate(4.000000, 3.000000)">
		<path id="Combined-Shape" class="st0" d="M8.6,0.8C7.6,2.6,7,4.7,7,7c0,7.2,5.8,13,13,13c1.5,0,3-0.3,4.4-0.8
			c-2.2,4-6.5,6.8-11.4,6.8C5.8,26,0,20.2,0,13C0,7.4,3.6,2.6,8.6,0.8z"/>
		<polygon id="Star" class="st1" points="12.2,6.4 12.1,6.5 12.1,6.3 12,6.2 12.2,6.1 12.2,6 12.3,6.1 12.5,6.2 12.4,6.3 12.4,6.5 
					"/>
		<polygon id="Star_1_" class="st1" points="20,6.6 19.4,6.8 19.5,6.2 19,5.7 19.7,5.5 20,5 20.3,5.5 21,5.7 20.5,6.2 20.6,6.8 		
			"/>
		<polygon id="Star_2_" class="st1" points="15.5,9.8 15.2,9.9 15.2,9.6 15,9.3 15.3,9.3 15.5,9 15.7,9.3 16,9.3 15.8,9.6 15.8,9.9 
					"/>
		<polygon id="Star_3_" class="st1" points="16,2.6 15.4,2.8 15.5,2.2 15,1.7 15.7,1.5 16,1 16.3,1.5 17,1.7 16.5,2.2 16.6,2.8 		
			"/>
	</g>
</g>
</svg>
