<?xml version="1.0" ?><svg height="32px" version="1.1" viewBox="0 0 32 32" width="32px" xmlns="http://www.w3.org/2000/svg" xmlns:xlink="http://www.w3.org/1999/xlink"><title/><desc/><defs/><g fill="none" fill-rule="evenodd" id="Heavy-Rain" stroke="none" stroke-width="1"><g stroke="#979797" transform="translate(3.000000, 2.000000)"><path d="M9.64075822,4.50583286 C8.76235298,4.08656863 7.77895738,3.85185185 6.74074074,3.85185185 C3.01793243,3.85185185 0,6.86978428 0,10.5925926 C0,14.3154009 3.01793243,17.3333333 6.74074074,17.3333333 C8.57997198,17.3333333 10.2471575,16.5967179 11.4633749,15.4024092" id="Oval" stroke-width="2"/><path d="M9.96956753,13.5435375 C11.529699,15.8313205 14.156887,17.3333333 17.134889,17.3333333 C21.9213568,17.3333333 25.8015556,13.4531345 25.8015556,8.66666667 C25.8015556,3.88019884 21.9213568,0 17.134889,0 C12.9842561,0 9.51510686,2.91777867 8.66666667,6.81411072" id="Oval" stroke-linecap="round" stroke-width="2"/><path d="M14.2414368,23.7414368 L14.5508969,25.8014677 C14.6849183,26.6936284 15.4513825,27.3535534 16.3535534,27.3535534 C17.1819805,27.3535534 17.8535534,26.6819805 17.8535534,25.8535534 C17.8535534,24.9513825 17.1936284,24.1849183 16.3014677,24.0508969 L14.2414368,23.7414368 Z" fill="#979797" id="Rectangle-4" transform="translate(16.000000, 25.500000) rotate(45.000000) translate(-16.000000, -25.500000) "/><path d="M6.24143682,23.7414368 L6.55089694,25.8014677 C6.6849183,26.6936284 7.45138247,27.3535534 8.35355339,27.3535534 C9.18198052,27.3535534 9.85355339,26.6819805 9.85355339,25.8535534 C9.85355339,24.9513825 9.1936284,24.1849183 8.30146774,24.0508969 L6.24143682,23.7414368 Z" fill="#979797" id="Rectangle-3" transform="translate(8.000000, 25.500000) rotate(45.000000) translate(-8.000000, -25.500000) "/><path d="M10.2414368,19.7414368 L10.5508969,21.8014677 C10.6849183,22.6936284 11.4513825,23.3535534 12.3535534,23.3535534 C13.1819805,23.3535534 13.8535534,22.6819805 13.8535534,21.8535534 C13.8535534,20.9513825 13.1936284,20.1849183 12.3014677,20.0508969 L10.2414368,19.7414368 Z" fill="#979797" id="Rectangle-2" transform="translate(12.000000, 21.500000) rotate(45.000000) translate(-12.000000, -21.500000) "/></g></g></svg>