<?xml version="1.0" encoding="utf-8"?>
<!-- Generator: Adobe Illustrator 25.0.1, SVG Export Plug-In . SVG Version: 6.00 Build 0)  -->
<svg version="1.1" id="Layer_1" xmlns="http://www.w3.org/2000/svg" xmlns:xlink="http://www.w3.org/1999/xlink" x="0px" y="0px"
	 viewBox="0 0 32 32" style="enable-background:new 0 0 32 32;" xml:space="preserve">
<style type="text/css">
	.st0{fill:none;stroke:#FFFFFF;stroke-width:2;}
	.st1{fill:none;stroke:#FFFFFF;stroke-width:2;stroke-linecap:round;}
</style>
<desc></desc>
<g id="Overcast">
	<g transform="translate(3.000000, 6.000000)">
		<g id="Group-3" transform="translate(2.000000, 0.000000)">
			<path id="Oval-3" class="st0" d="M8,7c0-2.2-1.8-4-4-4S0,4.8,0,7c0,0.7,0.2,1.5,0.6,2"/>
			<path id="Oval-3_1_" class="st1" d="M18.1,3.5C16.9,1.4,14.6,0,12,0C9.5,0,7.4,1.3,6.1,3.2"/>
		</g>
		<g id="Group-2" transform="translate(0.000000, 3.000000)">
			<path id="Oval" class="st0" d="M10.1,5C9.3,4.6,8.3,4.4,7.3,4.4c-3.6,0-6.5,2.9-6.5,6.5s2.9,6.5,6.5,6.5c1.8,0,3.4-0.7,4.6-1.9"
				/>
			<path id="Oval_1_" class="st1" d="M10.5,13.8c1.5,2.2,4.1,3.7,6.9,3.7c4.6,0,8.4-3.8,8.4-8.4S22,0.7,17.4,0.7
				c-4,0-7.4,2.8-8.2,6.6"/>
		</g>
	</g>
</g>
</svg>
