<?xml version="1.0" ?><svg height="32px" version="1.1" viewBox="0 0 32 32" width="32px" xmlns="http://www.w3.org/2000/svg" xmlns:xlink="http://www.w3.org/1999/xlink"><title/><desc/><defs/><g fill="none" fill-rule="evenodd" id="Foggy-Night" stroke="none" stroke-linecap="round" stroke-width="1"><g stroke="#979797" stroke-width="2" transform="translate(2.000000, 3.000000)"><path d="M3.51316662,18.3249972 C2.54726095,16.5076902 2,14.4339474 2,12.2323849 C2,6.60133385 5.58023357,1.80649116 10.5885576,0 C9.57578659,1.85044465 9,3.97417369 9,6.23238489 C9,9.97477528 10.5813595,13.3478194 13.1123215,15.7197602 M24.5725541,18.9778781 C25.2032153,18.8512818 25.8173753,18.6790485 26.4114424,18.4647698 C25.4048345,20.303954 23.9665443,21.8731697 22.2328555,23.0361332" id="Combined-Shape" stroke-linejoin="round"/><path d="M0,22 L13.0550475,22 M17,22 L18.902832,22" id="Path-8"/><path d="M6,18 L22,18" id="Path-8"/><path d="M8,25 L21.8560103,25 M25.2606282,25 L26.902832,25" id="Path-8" transform="translate(17.451416, 25.500000) rotate(180.000000) translate(-17.451416, -25.500000) "/></g></g></svg>