<?xml version="1.0" ?><svg height="32px" version="1.1" viewBox="0 0 32 32" width="32px" xmlns="http://www.w3.org/2000/svg" xmlns:xlink="http://www.w3.org/1999/xlink"><title/><desc/><defs/><g fill="none" fill-rule="evenodd" id="Thermometer-Warm" stroke="none" stroke-width="1"><g id="Group" stroke="#979797" stroke-width="2" transform="translate(7.000000, 2.000000)"><path d="M3,16.8026932 L3,3 C3,1.34314575 4.34314575,3.04359188e-16 6,0 C7.65685425,-3.04359188e-16 9,1.34314575 9,3 L9,16.8026932 C10.7934041,17.8401214 12,19.7791529 12,22 C12,25.3137085 9.3137085,28 6,28 C2.6862915,28 0,25.3137085 0,22 C0,19.7791529 1.20659589,17.8401214 3,16.8026932 Z" id="Combined-Shape"/><path d="M13,5 L18,5" id="Path-19" stroke-linecap="round"/><path d="M13,9 L18,9" id="Path-20" stroke-linecap="round"/><path d="M13,13 L18,13" id="Path-21" stroke-linecap="round"/></g><path d="M13,27 C14.6568542,27 16,25.6568542 16,24 C16,22.3431458 15.6568542,24 14,24 C12.3431458,24 10,22.3431458 10,24 C10,25.6568542 11.3431458,27 13,27 Z" fill="#CCCCCC" id="Oval"/></g></svg>