<?xml version="1.0" ?><svg height="32px" version="1.1" viewBox="0 0 32 32" width="32px" xmlns="http://www.w3.org/2000/svg" xmlns:xlink="http://www.w3.org/1999/xlink"><title/><desc/><defs/><g fill="none" fill-rule="evenodd" id="Foggy" stroke="none" stroke-linecap="round" stroke-width="1"><g stroke="#979797" stroke-width="2" transform="translate(3.000000, 7.000000)"><g id="Group-2"><path d="M10.1441195,5.03385852 C9.29274212,4.62749472 8.33960485,4.4 7.33333333,4.4 C3.72507297,4.4 0.8,7.32507297 0.8,10.9333333 C0.8,12.0368974 1.07361257,13.0765558 1.55670014,13.9881709" id="Oval"/><path d="M24.1279277,14.1071314 C25.1826564,12.7031421 25.8076616,10.9578933 25.8076616,9.06666667 C25.8076616,4.42747477 22.0468535,0.666666667 17.4076616,0.666666667 C13.3847405,0.666666667 10.0223343,3.49466753 9.2,7.27111244" id="Oval"/></g><path d="M0,17 L13.0550475,17 M17,17 L18.902832,17" id="Path-8"/><path d="M5,13 L21,13" id="Path-8"/><path d="M7,20 L20.8560103,20 M24.2606282,20 L25.902832,20" id="Path-8" transform="translate(16.451416, 20.500000) rotate(180.000000) translate(-16.451416, -20.500000) "/></g></g></svg>